HIERARCHY
ROOT Hips
{
    OFFSET 13.527122497558594 94.35400772094727 -18.324386596679688
    CHANNELS 6 Xposition Yposition Zposition Zrotation Xrotation Yrotation
    JOINT RightUpLeg
    {
        OFFSET -13.527122497558594 0.0 0.0
        CHANNELS 3 Zrotation Xrotation Yrotation
        JOINT RightLeg
        {
            OFFSET 0.0 -48.54304504394531 0.0
            CHANNELS 3 Zrotation Xrotation Yrotation
            JOINT RightFoot
            {
                OFFSET 0.0 -45.81096267700195 0.0
                CHANNELS 3 Zrotation Xrotation Yrotation
                End Site
                {
                    OFFSET 0.0 0.0 18.324386596679688
                }
            }
        }
    }
    JOINT LeftUpLeg
    {
        OFFSET 13.527122497558594 0.0 0.0
        CHANNELS 3 Zrotation Xrotation Yrotation
        JOINT LeftLeg
        {
            OFFSET 0.0 -48.54304504394531 0.0
            CHANNELS 3 Zrotation Xrotation Yrotation
            JOINT LeftFoot
            {
                OFFSET 0.0 -45.81096267700195 0.0
                CHANNELS 3 Zrotation Xrotation Yrotation
                End Site
                {
                    OFFSET 0.0 0.0 18.324386596679688
                }
            }
        }
    }
    JOINT Spine
    {
        OFFSET 0.0 25.700157165527344 0.0
        CHANNELS 3 Zrotation Xrotation Yrotation
        JOINT Spine3
        {
            OFFSET 0.0 26.027023315429688 0.0
            CHANNELS 3 Zrotation Xrotation Yrotation
            JOINT Neck
            {
                OFFSET 0.0 11.232364654541016 0.0
                CHANNELS 3 Zrotation Xrotation Yrotation
                End Site
                {
                    OFFSET 0.0 4.492945671081543 0.0
                }
            }
            JOINT LeftArm
            {
                OFFSET 14.117902755737305 0.0 0.0
                CHANNELS 3 Zrotation Xrotation Yrotation
                JOINT LeftForeArm
                {
                    OFFSET 27.8414306640625 0.0 0.0
                    CHANNELS 3 Zrotation Xrotation Yrotation
                    JOINT LeftHand
                    {
                        OFFSET 25.007091522216797 0.0 0.0
                        CHANNELS 3 Zrotation Xrotation Yrotation
                        End Site
                        {
                            OFFSET 10.002836227416992 0.0 0.0
                        }
                    }
                }
            }
            JOINT RightArm
            {
                OFFSET -14.117902755737305 0.0 0.0
                CHANNELS 3 Zrotation Xrotation Yrotation
                JOINT RightForeArm
                {
                    OFFSET -27.8414306640625 0.0 0.0
                    CHANNELS 3 Zrotation Xrotation Yrotation
                    JOINT RightHand
                    {
                        OFFSET -25.007091522216797 0.0 0.0
                        CHANNELS 3 Zrotation Xrotation Yrotation
                        End Site
                        {
                            OFFSET -10.002836227416992 0.0 0.0
                        }
                    }
                }
            }
        }
    }
}
MOTION
Frames: 10
Frame Time: 0.03333333333333333
-0.00014132302021607757 93.82633972167969 -0.0006599020562134683 -3.4566700219118967 -17.084281130469794 -14.324688955586586 4.987485915494472 26.68886410605902 -3.7566276650072497 -4.089453041714545 5.691093486621841 -0.33070489782762524 -1.5086593792163628e-34 4.969616689786745e-17 3.4787316828507215e-16 2.0364262821149004 24.011832802487064 -2.1938069758545065 0.8921838913687152 4.382180997400523 -0.44538635310515656 7.951386703658792e-16 9.93923337957349e-17 -7.454425034680117e-16 -2.3308953725810806 34.45327242188388 -0.5685742742432421 -3.806032015121999e-07 4.1598215541484395e-07 1.062724539199667 7.1554270103335735 -3.4895825382836017 -179.97311051329913 113.13383978068681 -20.66787728401218 -172.92046801863765 1.293826013861178e-07 -8.347275336183315e-06 22.080452627176946 0.0 0.0 3.1805546814635168e-15 -113.74285374960749 -35.2807794277176 167.04442244434708 -3.1814019476218587e-06 1.0327695099369983e-06 -25.169957433066543 -6.3611093629270335e-15 0.0 0.0
-0.000145200829138048 93.82638549804688 -0.0006765953148715198 -3.441661475217141 -16.992873780110525 -13.934978476811407 5.331554960069923 26.430073159945014 -3.7723546747965395 -4.204100593747463 5.679410473002384 -0.32999599491831894 -3.975693351829396e-16 1.034509288605506e-33 -2.981770013872047e-16 2.3542200703143603 23.745130583741688 -2.204522912133062 0.8332724111119582 4.519189904206657 -0.46144714446363716 0.0 0.0 -4.472655020808071e-16 -1.8670733238125476 34.52252932116155 -0.6993545942325615 -6.265173429296462e-08 -1.0721244216953576e-07 1.1285303083326965 7.260244479894712 -3.4317872293516665 -179.74865818296203 113.70009439121881 -21.524050084737425 -172.7863477397473 2.3975687355535707e-06 -1.2385521244810117e-06 22.587953088694306 -8.827812596100317e-32 3.1805546814635168e-15 3.1805546814635168e-15 -113.90964409445836 -35.023846495977764 167.22433288420797 -2.13698285554723e-06 1.9593127601016983e-07 -25.570693542390025 8.34895603884173e-15 -3.1805546814635164e-15 2.3173008064763334e-31
-0.00014432253374252468 93.82636260986328 -0.0006633057491853833 -3.3952429901178274 -16.914888486380185 -13.90615512292885 5.247098315522228 26.212948764796856 -3.6786489551263117 -4.065245866041618 5.670158737645285 -0.33178437794339993 3.975693351829396e-16 -2.5862732215137646e-33 -7.454425034680117e-16 2.3911605152767748 23.750051787226557 -2.1953286585185796 0.7097061536353192 4.453192855833537 -0.443322709819995 0.0 0.0 -7.454425034680117e-16 -1.4872214990450745 34.27301227561775 -0.8748651135221298 -3.800520968115591e-07 1.2522250596924247e-06 1.1945013805241496 6.740902661619494 -3.0730375370593346 -179.60497932334627 113.72126561878989 -20.405845263645244 -172.9479711989307 1.8189943170472885e-06 -3.154079562274222e-06 22.652160045883956 4.770832022195275e-15 3.1805546814635168e-15 3.1805546814635168e-15 -113.74394213159668 -34.66671399248612 167.78195951434222 8.764782328100447e-07 6.212411578780215e-07 -25.586612800123316 -7.951386703658791e-16 -3.1805546814635164e-15 -2.2069531490250793e-32
-0.00012845003220718354 93.826416015625 -0.0006777789094485343 -3.2682568212785563 -16.91795204221971 -13.702578651597447 5.234311065137948 25.85687598435206 -3.6202331437006383 -4.525380699458336 5.739473334260485 -0.28949994776166404 -8.276074308844047e-33 -1.5902773407317584e-15 -5.963540027744094e-16 2.097453508097736 23.64134980933653 -2.061589343130739 1.402225494466242 4.470647560001595 -0.4777510751711878 0.0 0.0 -5.963540027744094e-16 -1.0775768876869 34.35173261228042 -1.0999069140995452 1.1128734677659958e-07 8.999459271826114e-07 1.329143141030592 6.273412599471048 -2.866052739257791 -179.74214676415556 114.0124317547461 -20.040144135469063 -172.83132780544366 4.345432080195025e-06 -1.1395567715805475e-06 23.295985242892417 2.3854160110976384e-15 3.1805546814635176e-15 -6.620859447075238e-32 -114.24199543597582 -34.71465628426827 167.92362238211115 6.476907070125223e-06 -6.443128348961893e-07 -26.488224632382867 1.1927080055488186e-15 0.0 0.0
-0.0001511362788733095 93.82638549804688 -0.0006865821196697652 -3.2001745898343037 -16.869679165983097 -14.178507701262266 4.559305528440606 25.70028656674055 -3.3760408622317404 -4.022500450103215 5.8780718988650875 -0.30220018516095576 4.275971726236091e-32 1.5405811738338909e-15 -3.1805546814635168e-15 1.7653270447562157 23.77598685733903 -2.0055412990871773 1.2314911660147978 4.572582059401118 -0.4622753693414133 0.0 0.0 7.95138670365879e-16 -0.875048533513858 34.07787131962983 -1.2993738197327844 -6.566171599746928e-08 2.1629962694294388e-07 1.3712155284554937 5.87581887826679 -2.6202564651569724 -179.36708635611183 113.23259148527147 -16.129342089272903 -173.14639118747368 1.3089826507487789e-06 2.1367978412305646e-06 22.91030347164466 3.1805546814635168e-15 1.7655625192200634e-31 6.3611093629270335e-15 -113.87614075314146 -34.22865251980146 168.44859251620397 6.654409007136072e-06 4.316679654061831e-06 -26.22450744853587 8.348956038841732e-15 0.0 0.0
-9.360437979921699e-05 93.82645416259766 -0.000684586470015347 -3.153404185145603 -16.681319967798874 -13.975110015426244 4.586168063262569 25.309475066725017 -3.294445992431916 -3.96277712997853 6.326002371869464 -0.32649730771542257 -7.951386703658791e-16 1.3793457181406746e-33 -1.9878466759146977e-16 2.0870250036904143 23.347118047338284 -2.058159789339848 0.8796751907616264 4.89100870357432 -0.4825584354858706 0.0 0.0 -6.957463365701441e-16 -0.4630098819436403 34.03144030073454 -1.47015324265141 1.3433606303694939e-07 -1.204563826434861e-06 1.4189528342211721 5.89190067308194 -2.3108827150275695 -178.9762529364818 113.78626800197439 -15.389486290174519 -173.09581897827908 -1.004918826591002e-06 -4.680887010420637e-06 23.2969509327237 -9.541664044390549e-15 3.180554681463516e-15 3.1805546814635168e-15 -113.22192692587268 -32.36893818354988 169.18134103938465 -1.4107390563602183e-07 1.922172153134375e-06 -25.956738214816326 -1.1927080055488186e-15 0.0 0.0
-8.083986904239282e-05 93.82646942138672 -0.0006831134669482708 -3.1742717825457345 -16.414751342178413 -13.896682094774171 4.529394190098254 24.92769068021424 -3.1440040917654337 -3.7136147493675473 6.55842902078549 -0.3442647854770408 3.975693351829397e-16 -4.969616689786746e-17 6.46050169672277e-16 2.157650367716655 23.11499063324654 -1.9932330698792327 0.9131482064793386 4.910219093652887 -0.4788700686085847 1.3793457181406746e-33 1.5902773407317588e-15 -9.939233379573492e-17 0.11746235869102373 33.75210615457858 -1.6788791536351377 -6.950444108188767e-08 -3.8167253479762725e-07 1.5001417047818069 5.600493809311102 -2.594595999455214 -179.26140833349336 114.04400584521775 -13.334203335339218 -172.98157983124395 5.35543265710901e-07 3.150266083220544e-07 23.42002265968556 -3.1805546814635168e-15 8.827812596100317e-32 -3.1805546814635168e-15 -112.91846657738786 -30.691442987902434 169.53499572047352 -3.511940750706846e-06 9.267365294545296e-07 -25.530944534225462 -1.5902773407317588e-15 3.1805546814635176e-15 4.4139062980501586e-32
-5.1050621550530195e-05 93.82648468017578 -0.0006703682010993361 -3.2351210076273467 -16.121093982434235 -13.82252692411735 4.616260035136108 24.462405260021374 -3.0514239380044685 -3.643047944910577 6.735789091302652 -0.35521097838911975 3.975693351829396e-16 1.2069275033730902e-33 3.4787316828507215e-16 2.2646543353423088 22.827685342196556 -1.9426666210905783 1.3459082873069375 4.860149165585225 -0.5064072232235327 -2.758691436281349e-33 1.5902773407317588e-15 1.9878466759146985e-16 0.7229553028189846 33.31023964134524 -1.8955556728716343 -1.221275891874107e-07 -1.047670332030399e-06 1.4141532565683457 5.135895978909864 -2.556463489074325 -179.176523201412 115.55720063594339 -13.4893505678108 -172.46712228982665 -1.2852630911576037e-06 -3.689295653386383e-06 24.06348196377587 -9.541664044390547e-15 3.180554681463516e-15 -3.180554681463515e-15 -112.45772776215682 -28.650200005219062 170.40983930267996 1.0655098693910985e-06 -3.0851561029717657e-06 -24.996628955723498 2.9817700138720468e-15 0.0 0.0
-3.4783304727170616e-05 93.82649230957031 -0.0006423597224056721 -3.0101331040879575 -15.895606442605915 -13.333765518945548 4.662720097403217 23.880327267569665 -2.964936430294246 -4.023167647553819 6.9523263295149915 -0.3191869815549896 0.0 0.0 -1.9878466759146985e-16 2.474272318877598 22.471494495897492 -1.9593384437903307 1.3239806744543101 5.047281340957742 -0.5346853914194345 0.0 0.0 -6.957463365701443e-16 1.1793836906180342 32.67280993878634 -2.0609908628956397 -3.6002091684690616e-07 -7.328600789162891e-07 1.4052148188167728 4.720646750496928 -2.297792758525691 -179.1099243994469 117.18498092586118 -11.793856923033378 -172.08720133556042 1.1711531367638964e-06 -5.589708744519089e-07 24.56678398628912 3.1805546814635176e-15 0.0 0.0 -112.25813307864301 -27.573595068059436 171.20272621080392 3.2207727347731697e-06 1.6654963147427136e-06 -24.405138696252145 -9.939233379573488e-16 0.0 0.0
-3.67227585229557e-05 93.82659912109375 -0.000670786015689373 -3.0213787594167894 -15.585982266666305 -12.957085565160082 4.842001477142261 23.219405377489057 -2.8134237789213428 -3.5626214110192405 7.180412991346228 -0.3702017459092282 8.965747167914385e-33 -1.5902773407317584e-15 6.460501696722769e-16 2.900426724687681 22.03137331912702 -1.946507379271207 0.9836461342435099 5.409943977787703 -0.5474712783758104 0.0 0.0 5.963540027744094e-16 1.9596136102084327 31.821867700674073 -2.233124534254658 -3.5066593037885244e-07 2.9320518817033996e-06 1.0908446922986552 4.357438901735424 -2.1730155596297056 -178.87787593137162 118.05396067681791 -7.224884115597478 -171.72268352900952 1.9379489810055775e-06 -2.553271387578619e-06 25.05070682364903 -8.746525374024672e-15 2.427648463927587e-31 -3.1805546814635176e-15 -111.5751543078129 -25.436155640044753 172.04306481486228 -2.792783524536689e-06 1.918488777711088e-06 -23.58370594243995 -3.1805546814635164e-15 -8.827812596100317e-32 3.1805546814635164e-15
